<?xml version="1.0" standalone="no"?>
<svg viewBox="0 0 200 200" xmlns="http://www.w3.org/2000/svg">
  <path fill="#FFDDD2" d="M44.2,-66C56.4,-60.9,64.7,-47.1,72,-32.5C79.2,-17.9,85.2,-2.4,83.5,12.2C81.7,26.8,72.1,40.4,59.2,46.5C46.4,52.5,30.4,50.8,16.2,54.8C2,58.9,-10.5,68.6,-22.5,68.7C-34.5,68.8,-45.9,59.3,-50.7,47.5C-55.5,35.6,-53.6,21.5,-58.6,6.6C-63.5,-8.3,-75.3,-24.1,-73.8,-36.3C-72.2,-48.5,-57.3,-57.2,-42.8,-61.3C-28.2,-65.3,-14.1,-64.7,0.9,-66.2C16,-67.6,32,-71.2,44.2,-66Z" transform="translate(100 100)" />
</svg>
